<svg viewBox="0 0 438.2 131.9" fill="none" stroke-linecap="square" stroke-miterlimit="10" xmlns="http://www.w3.org/2000/svg"><clipPath id="a"><path d="M0 0h438.2v132H0V0z"/></clipPath><g clip-path="url(#a)"><path fill="#000" fill-opacity="0" d="M0 0h438.2v132H0zM188.9 17.2l41.7 24" fill-rule="evenodd"/><path stroke="#000" stroke-linejoin="round" stroke-linecap="butt" d="M188.9 17.2l41.7 24" fill-rule="evenodd"/><path fill="#000" fill-opacity="0" d="M188.9 17.2l41.7 72" fill-rule="evenodd"/><path stroke="#000" stroke-linejoin="round" stroke-linecap="butt" d="M188.9 17.2l41.7 72" fill-rule="evenodd"/><path fill="#000" fill-opacity="0" d="M188.9 41.2h41.7" fill-rule="evenodd"/><path stroke="#000" stroke-linejoin="round" stroke-linecap="butt" d="M188.9 41.2h41.7" fill-rule="evenodd"/><path fill="#000" fill-opacity="0" d="M188.9 41.2l41.7 48" fill-rule="evenodd"/><path stroke="#000" stroke-linejoin="round" stroke-linecap="butt" d="M188.9 41.2l41.7 48" fill-rule="evenodd"/><path fill="#000" fill-opacity="0" d="M188.9 89.2l41.7-48" fill-rule="evenodd"/><path stroke="#000" stroke-linejoin="round" stroke-linecap="butt" d="M188.9 89.2l41.7-48" fill-rule="evenodd"/><path fill="#000" fill-opacity="0" d="M188.9 89.2h41.7" fill-rule="evenodd"/><path stroke="#000" stroke-linejoin="round" stroke-linecap="butt" d="M188.9 89.2h41.7" fill-rule="evenodd"/><path fill="#000" fill-opacity="0" d="M188.9 113.2l41.7-24" fill-rule="evenodd"/><path stroke="#000" stroke-linejoin="round" stroke-linecap="butt" d="M188.9 113.2l41.7-24" fill-rule="evenodd"/><path fill="#000" fill-opacity="0" d="M188.9 113.2l41.7-72" fill-rule="evenodd"/><path stroke="#000" stroke-linejoin="round" stroke-linecap="butt" d="M188.9 113.2l41.7-72" fill-rule="evenodd"/><path fill="#000" fill-opacity="0" d="M174.6 41.2c0-4 3.2-7.1 7.1-7.1a7.1 7.1 0 017.2 7.1c0 4-3.2 7.2-7.2 7.2s-7.1-3.2-7.1-7.2z" fill-rule="evenodd"/><path stroke="#000" stroke-linejoin="round" stroke-linecap="butt" d="M174.6 41.2h0c0-4 3.2-7.1 7.1-7.1h0a7.1 7.1 0 017.2 7.1h0c0 4-3.2 7.2-7.2 7.2h0c-4 0-7.1-3.2-7.1-7.2z" fill-rule="evenodd"/><path fill="#000" fill-opacity="0" d="M174.6 89.2c0-4 3.2-7.1 7.1-7.1a7.1 7.1 0 017.2 7.1c0 4-3.2 7.2-7.2 7.2s-7.1-3.2-7.1-7.2z" fill-rule="evenodd"/><path stroke="#000" stroke-linejoin="round" stroke-linecap="butt" d="M174.6 89.2h0c0-4 3.2-7.1 7.1-7.1h0a7.1 7.1 0 017.2 7.1h0c0 4-3.2 7.2-7.2 7.2h0c-4 0-7.1-3.2-7.1-7.2z" fill-rule="evenodd"/><path fill="#000" fill-opacity="0" d="M174.6 17.2c0-4 3.2-7.1 7.1-7.1a7.1 7.1 0 017.2 7.1c0 4-3.2 7.2-7.2 7.2s-7.1-3.2-7.1-7.2z" fill-rule="evenodd"/><path stroke="#000" stroke-linejoin="round" stroke-linecap="butt" d="M174.6 17.2h0c0-4 3.2-7.1 7.1-7.1h0a7.1 7.1 0 017.2 7.1h0c0 4-3.2 7.2-7.2 7.2h0c-4 0-7.1-3.2-7.1-7.2z" fill-rule="evenodd"/><path fill="#000" fill-opacity="0" d="M174.6 113.2c0-4 3.2-7.1 7.1-7.1a7.1 7.1 0 017.2 7.1c0 4-3.2 7.2-7.2 7.2s-7.1-3.2-7.1-7.2z" fill-rule="evenodd"/><path stroke="#000" stroke-linejoin="round" stroke-linecap="butt" d="M174.6 113.2h0c0-4 3.2-7.1 7.1-7.1h0a7.1 7.1 0 017.2 7.1h0c0 4-3.2 7.2-7.2 7.2h0c-4 0-7.1-3.2-7.1-7.2z" fill-rule="evenodd"/><path fill="#000" fill-opacity="0" d="M407 58.6h29.6v13.3h-29.7z" fill-rule="evenodd"/><path fill="#000" d="M417 77l.4-1.3h.3q.4.5 1 .5t1-.7q.5-.6 1.4-2.8l-.7-1.9-1.5-3.5-.6-1.6-.6-1.2-.2-.2-.7-.2h-.1v-.4h4.3v.4l-.6.1q-.5 0-.6.2l-.1.2.3 1 .5 1.5.6 1.4.9 2.1.4-1 .8-1.8.7-2 .4-.9v-.3l-.1-.2-.7-.2h-.4v-.5h3.4v.5h-.6l-.3.4-.7 1.2-1 2-.8 2-2.1 4.8-.7 1.4q-.4.7-1 1-.6.4-1.2.4T417 77zm4.8-14.1zm2.2 9.8z"/><path fill="#000" fill-opacity="0" d="M188.9 17.2h41.7" fill-rule="evenodd"/><path stroke="#000" stroke-linejoin="round" stroke-linecap="butt" d="M188.9 17.2h41.7" fill-rule="evenodd"/><path fill="#000" fill-opacity="0" d="M188.9 17.2l41.7 96" fill-rule="evenodd"/><path stroke="#000" stroke-linejoin="round" stroke-linecap="butt" d="M188.9 17.2l41.7 96" fill-rule="evenodd"/><path fill="#000" fill-opacity="0" d="M188.9 113.2h41.7" fill-rule="evenodd"/><path stroke="#000" stroke-linejoin="round" stroke-linecap="butt" d="M188.9 113.2h41.7" fill-rule="evenodd"/><path fill="#000" fill-opacity="0" d="M188.9 113.2l41.7-96" fill-rule="evenodd"/><path stroke="#000" stroke-linejoin="round" stroke-linecap="butt" d="M188.9 113.2l41.7-96" fill-rule="evenodd"/><path fill="#000" fill-opacity="0" d="M188.9 41.2l41.7-24" fill-rule="evenodd"/><path stroke="#000" stroke-linejoin="round" stroke-linecap="butt" d="M188.9 41.2l41.7-24" fill-rule="evenodd"/><path fill="#000" fill-opacity="0" d="M188.9 41.2l41.7 72" fill-rule="evenodd"/><path stroke="#000" stroke-linejoin="round" stroke-linecap="butt" d="M188.9 41.2l41.7 72" fill-rule="evenodd"/><path fill="#000" fill-opacity="0" d="M188.9 89.2l41.7 24" fill-rule="evenodd"/><path stroke="#000" stroke-linejoin="round" stroke-linecap="butt" d="M188.9 89.2l41.7 24" fill-rule="evenodd"/><path fill="#000" fill-opacity="0" d="M188.9 89.2l41.7-72" fill-rule="evenodd"/><path stroke="#000" stroke-linejoin="round" stroke-linecap="butt" d="M188.9 89.2l41.7-72" fill-rule="evenodd"/><path fill="#000" fill-opacity="0" d="M164.2 83.2v-36h26.4v36z" fill-rule="evenodd"/><path fill="#000" d="M182.2 69.6h-1.3v-1.4h1.3v1.4zm0-3.7h-1.3v-1.4h1.3V66zm0-3.7h-1.3v-1.4h1.3v1.4z"/><path fill="#000" fill-opacity="0" d="M230.6 41.2c0-4 3.2-7.1 7.1-7.1a7.1 7.1 0 017.2 7.1c0 4-3.2 7.2-7.2 7.2s-7.1-3.2-7.1-7.2z" fill-rule="evenodd"/><path stroke="#000" stroke-linejoin="round" stroke-linecap="butt" d="M230.6 41.2h0c0-4 3.2-7.1 7.1-7.1h0a7.1 7.1 0 017.2 7.1h0c0 4-3.2 7.2-7.2 7.2h0c-4 0-7.1-3.2-7.1-7.2z" fill-rule="evenodd"/><path fill="#000" fill-opacity="0" d="M230.6 89.2c0-4 3.2-7.1 7.1-7.1a7.1 7.1 0 017.2 7.1c0 4-3.2 7.2-7.2 7.2s-7.1-3.2-7.1-7.2z" fill-rule="evenodd"/><path stroke="#000" stroke-linejoin="round" stroke-linecap="butt" d="M230.6 89.2h0c0-4 3.2-7.1 7.1-7.1h0a7.1 7.1 0 017.2 7.1h0c0 4-3.2 7.2-7.2 7.2h0c-4 0-7.1-3.2-7.1-7.2z" fill-rule="evenodd"/><path fill="#000" fill-opacity="0" d="M230.6 17.2c0-4 3.2-7.1 7.1-7.1a7.1 7.1 0 017.2 7.1c0 4-3.2 7.2-7.2 7.2s-7.1-3.2-7.1-7.2z" fill-rule="evenodd"/><path stroke="#000" stroke-linejoin="round" stroke-linecap="butt" d="M230.6 17.2h0c0-4 3.2-7.1 7.1-7.1h0a7.1 7.1 0 017.2 7.1h0c0 4-3.2 7.2-7.2 7.2h0c-4 0-7.1-3.2-7.1-7.2z" fill-rule="evenodd"/><path fill="#000" fill-opacity="0" d="M230.6 113.2c0-4 3.2-7.1 7.1-7.1a7.1 7.1 0 017.2 7.1c0 4-3.2 7.2-7.2 7.2s-7.1-3.2-7.1-7.2z" fill-rule="evenodd"/><path stroke="#000" stroke-linejoin="round" stroke-linecap="butt" d="M230.6 113.2h0c0-4 3.2-7.1 7.1-7.1h0a7.1 7.1 0 017.2 7.1h0c0 4-3.2 7.2-7.2 7.2h0c-4 0-7.1-3.2-7.1-7.2z" fill-rule="evenodd"/><path fill="#000" fill-opacity="0" d="M220.2 83.2v-36h26.4v36z" fill-rule="evenodd"/><path fill="#000" d="M238.2 69.6h-1.3v-1.4h1.3v1.4zm0-3.7h-1.3v-1.4h1.3V66zm0-3.7h-1.3v-1.4h1.3v1.4z"/><path fill="#000" fill-opacity="0" d="M244.9 17.2l41.7 24" fill-rule="evenodd"/><path stroke="#000" stroke-linejoin="round" stroke-linecap="butt" d="M244.9 17.2l41.7 24" fill-rule="evenodd"/><path fill="#000" fill-opacity="0" d="M244.9 17.2l41.7 72" fill-rule="evenodd"/><path stroke="#000" stroke-linejoin="round" stroke-linecap="butt" d="M244.9 17.2l41.7 72" fill-rule="evenodd"/><path fill="#000" fill-opacity="0" d="M244.9 41.2h41.7" fill-rule="evenodd"/><path stroke="#000" stroke-linejoin="round" stroke-linecap="butt" d="M244.9 41.2h41.7" fill-rule="evenodd"/><path fill="#000" fill-opacity="0" d="M244.9 41.2l41.7 48" fill-rule="evenodd"/><path stroke="#000" stroke-linejoin="round" stroke-linecap="butt" d="M244.9 41.2l41.7 48" fill-rule="evenodd"/><path fill="#000" fill-opacity="0" d="M244.9 89.2l41.7-48" fill-rule="evenodd"/><path stroke="#000" stroke-linejoin="round" stroke-linecap="butt" d="M244.9 89.2l41.7-48" fill-rule="evenodd"/><path fill="#000" fill-opacity="0" d="M244.9 89.2h41.7" fill-rule="evenodd"/><path stroke="#000" stroke-linejoin="round" stroke-linecap="butt" d="M244.9 89.2h41.7" fill-rule="evenodd"/><path fill="#000" fill-opacity="0" d="M244.9 113.2l41.7-24" fill-rule="evenodd"/><path stroke="#000" stroke-linejoin="round" stroke-linecap="butt" d="M244.9 113.2l41.7-24" fill-rule="evenodd"/><path fill="#000" fill-opacity="0" d="M244.9 113.2l41.7-72" fill-rule="evenodd"/><path stroke="#000" stroke-linejoin="round" stroke-linecap="butt" d="M244.9 113.2l41.7-72" fill-rule="evenodd"/><path fill="#000" fill-opacity="0" d="M244.9 17.2h41.7" fill-rule="evenodd"/><path stroke="#000" stroke-linejoin="round" stroke-linecap="butt" d="M244.9 17.2h41.7" fill-rule="evenodd"/><path fill="#000" fill-opacity="0" d="M244.9 17.2l41.7 96" fill-rule="evenodd"/><path stroke="#000" stroke-linejoin="round" stroke-linecap="butt" d="M244.9 17.2l41.7 96" fill-rule="evenodd"/><path fill="#000" fill-opacity="0" d="M244.9 113.2h41.7" fill-rule="evenodd"/><path stroke="#000" stroke-linejoin="round" stroke-linecap="butt" d="M244.9 113.2h41.7" fill-rule="evenodd"/><path fill="#000" fill-opacity="0" d="M244.9 113.2l41.7-96" fill-rule="evenodd"/><path stroke="#000" stroke-linejoin="round" stroke-linecap="butt" d="M244.9 113.2l41.7-96" fill-rule="evenodd"/><path fill="#000" fill-opacity="0" d="M244.9 41.2l41.7-24" fill-rule="evenodd"/><path stroke="#000" stroke-linejoin="round" stroke-linecap="butt" d="M244.9 41.2l41.7-24" fill-rule="evenodd"/><path fill="#000" fill-opacity="0" d="M244.9 41.2l41.7 72" fill-rule="evenodd"/><path stroke="#000" stroke-linejoin="round" stroke-linecap="butt" d="M244.9 41.2l41.7 72" fill-rule="evenodd"/><path fill="#000" fill-opacity="0" d="M244.9 89.2l41.7 24" fill-rule="evenodd"/><path stroke="#000" stroke-linejoin="round" stroke-linecap="butt" d="M244.9 89.2l41.7 24" fill-rule="evenodd"/><path fill="#000" fill-opacity="0" d="M244.9 89.2l41.7-72" fill-rule="evenodd"/><path stroke="#000" stroke-linejoin="round" stroke-linecap="butt" d="M244.9 89.2l41.7-72" fill-rule="evenodd"/><path fill="#000" fill-opacity="0" d="M286.6 41.2c0-4 3.2-7.1 7.1-7.1a7.1 7.1 0 017.2 7.1c0 4-3.2 7.2-7.2 7.2s-7.1-3.2-7.1-7.2z" fill-rule="evenodd"/><path stroke="#000" stroke-linejoin="round" stroke-linecap="butt" d="M286.6 41.2h0c0-4 3.2-7.1 7.1-7.1h0a7.1 7.1 0 017.2 7.1h0c0 4-3.2 7.2-7.2 7.2h0c-4 0-7.1-3.2-7.1-7.2z" fill-rule="evenodd"/><path fill="#000" fill-opacity="0" d="M286.6 89.2c0-4 3.2-7.1 7.1-7.1a7.1 7.1 0 017.2 7.1c0 4-3.2 7.2-7.2 7.2s-7.1-3.2-7.1-7.2z" fill-rule="evenodd"/><path stroke="#000" stroke-linejoin="round" stroke-linecap="butt" d="M286.6 89.2h0c0-4 3.2-7.1 7.1-7.1h0a7.1 7.1 0 017.2 7.1h0c0 4-3.2 7.2-7.2 7.2h0c-4 0-7.1-3.2-7.1-7.2z" fill-rule="evenodd"/><path fill="#000" fill-opacity="0" d="M286.6 17.2c0-4 3.2-7.1 7.1-7.1a7.1 7.1 0 017.2 7.1c0 4-3.2 7.2-7.2 7.2s-7.1-3.2-7.1-7.2z" fill-rule="evenodd"/><path stroke="#000" stroke-linejoin="round" stroke-linecap="butt" d="M286.6 17.2h0c0-4 3.2-7.1 7.1-7.1h0a7.1 7.1 0 017.2 7.1h0c0 4-3.2 7.2-7.2 7.2h0c-4 0-7.1-3.2-7.1-7.2z" fill-rule="evenodd"/><path fill="#000" fill-opacity="0" d="M286.6 113.2c0-4 3.2-7.1 7.1-7.1a7.1 7.1 0 017.2 7.1c0 4-3.2 7.2-7.2 7.2s-7.1-3.2-7.1-7.2z" fill-rule="evenodd"/><path stroke="#000" stroke-linejoin="round" stroke-linecap="butt" d="M286.6 113.2h0c0-4 3.2-7.1 7.1-7.1h0a7.1 7.1 0 017.2 7.1h0c0 4-3.2 7.2-7.2 7.2h0c-4 0-7.1-3.2-7.1-7.2z" fill-rule="evenodd"/><path fill="#000" fill-opacity="0" d="M276.2 83.2v-36h26.4v36z" fill-rule="evenodd"/><path fill="#000" d="M294.2 69.6h-1.3v-1.4h1.3v1.4zm0-3.7h-1.3v-1.4h1.3V66zm0-3.7h-1.3v-1.4h1.3v1.4z"/><path fill="#000" fill-opacity="0" d="M342.6 65.2c0-4 3.2-7.1 7.1-7.1a7.1 7.1 0 017.2 7.1c0 4-3.2 7.2-7.2 7.2s-7.1-3.2-7.1-7.2z" fill-rule="evenodd"/><path stroke="#000" stroke-linejoin="round" stroke-linecap="butt" d="M342.6 65.2h0c0-4 3.2-7.1 7.1-7.1h0a7.1 7.1 0 017.2 7.1h0c0 4-3.2 7.2-7.2 7.2h0c-4 0-7.1-3.2-7.1-7.2z" fill-rule="evenodd"/><path fill="#000" fill-opacity="0" d="M300.9 17.2l41.7 48" fill-rule="evenodd"/><path stroke="#000" stroke-linejoin="round" stroke-linecap="butt" d="M300.9 17.2l41.7 48" fill-rule="evenodd"/><path fill="#000" fill-opacity="0" d="M300.9 41.2l41.7 24" fill-rule="evenodd"/><path stroke="#000" stroke-linejoin="round" stroke-linecap="butt" d="M300.9 41.2l41.7 24" fill-rule="evenodd"/><path fill="#000" fill-opacity="0" d="M300.9 89.2l41.7-24" fill-rule="evenodd"/><path stroke="#000" stroke-linejoin="round" stroke-linecap="butt" d="M300.9 89.2l41.7-24" fill-rule="evenodd"/><path fill="#000" fill-opacity="0" d="M300.9 113.2l41.7-48" fill-rule="evenodd"/><path stroke="#000" stroke-linejoin="round" stroke-linecap="butt" d="M300.9 113.2l41.7-48" fill-rule="evenodd"/><path fill="#000" fill-opacity="0" d="M356.9 65.2h50" fill-rule="evenodd"/><path stroke="#000" stroke-linejoin="round" stroke-linecap="butt" d="M356.9 65.2h46.6" fill-rule="evenodd"/><path fill="#000" stroke="#000" stroke-linecap="butt" d="M403.5 65.2l-1.2 1.1 3.1-1-3-1.2z" fill-rule="evenodd"/><path fill="#000" fill-opacity="0" d="M76.9 41.2l41.7-24" fill-rule="evenodd"/><path stroke="#000" stroke-linejoin="round" stroke-linecap="butt" d="M76.9 41.2l41.7-24" fill-rule="evenodd"/><path fill="#000" fill-opacity="0" d="M76.9 41.2h41.7" fill-rule="evenodd"/><path stroke="#000" stroke-linejoin="round" stroke-linecap="butt" d="M76.9 41.2h41.7" fill-rule="evenodd"/><path fill="#000" fill-opacity="0" d="M76.9 41.2l41.7 48" fill-rule="evenodd"/><path stroke="#000" stroke-linejoin="round" stroke-linecap="butt" d="M76.9 41.2l41.7 48" fill-rule="evenodd"/><path fill="#000" fill-opacity="0" d="M76.9 41.2l41.7 72" fill-rule="evenodd"/><path stroke="#000" stroke-linejoin="round" stroke-linecap="butt" d="M76.9 41.2l41.7 72" fill-rule="evenodd"/><path fill="#000" fill-opacity="0" d="M76.9 65.2l41.7-48" fill-rule="evenodd"/><path stroke="#000" stroke-linejoin="round" stroke-linecap="butt" d="M76.9 65.2l41.7-48" fill-rule="evenodd"/><path fill="#000" fill-opacity="0" d="M76.9 65.2l41.7-24" fill-rule="evenodd"/><path stroke="#000" stroke-linejoin="round" stroke-linecap="butt" d="M76.9 65.2l41.7-24" fill-rule="evenodd"/><path fill="#000" fill-opacity="0" d="M76.9 65.2l41.7 24" fill-rule="evenodd"/><path stroke="#000" stroke-linejoin="round" stroke-linecap="butt" d="M76.9 65.2l41.7 24" fill-rule="evenodd"/><path fill="#000" fill-opacity="0" d="M76.9 65.2l41.7 48" fill-rule="evenodd"/><path stroke="#000" stroke-linejoin="round" stroke-linecap="butt" d="M76.9 65.2l41.7 48" fill-rule="evenodd"/><path fill="#000" fill-opacity="0" d="M76.9 89.2l41.7-72" fill-rule="evenodd"/><path stroke="#000" stroke-linejoin="round" stroke-linecap="butt" d="M76.9 89.2l41.7-72" fill-rule="evenodd"/><path fill="#000" fill-opacity="0" d="M76.9 89.2l41.7-48" fill-rule="evenodd"/><path stroke="#000" stroke-linejoin="round" stroke-linecap="butt" d="M76.9 89.2l41.7-48" fill-rule="evenodd"/><path fill="#000" fill-opacity="0" d="M76.9 89.2h41.7" fill-rule="evenodd"/><path stroke="#000" stroke-linejoin="round" stroke-linecap="butt" d="M76.9 89.2h41.7" fill-rule="evenodd"/><path fill="#000" fill-opacity="0" d="M76.9 89.2l41.7 24" fill-rule="evenodd"/><path stroke="#000" stroke-linejoin="round" stroke-linecap="butt" d="M76.9 89.2l41.7 24" fill-rule="evenodd"/><path fill="#000" fill-opacity="0" d="M132.9 17.2l41.7 24" fill-rule="evenodd"/><path stroke="#000" stroke-linejoin="round" stroke-linecap="butt" d="M132.9 17.2l41.7 24" fill-rule="evenodd"/><path fill="#000" fill-opacity="0" d="M132.9 17.2l41.7 72" fill-rule="evenodd"/><path stroke="#000" stroke-linejoin="round" stroke-linecap="butt" d="M132.9 17.2l41.7 72" fill-rule="evenodd"/><path fill="#000" fill-opacity="0" d="M132.9 41.2h41.7" fill-rule="evenodd"/><path stroke="#000" stroke-linejoin="round" stroke-linecap="butt" d="M132.9 41.2h41.7" fill-rule="evenodd"/><path fill="#000" fill-opacity="0" d="M132.9 41.2l41.7 48" fill-rule="evenodd"/><path stroke="#000" stroke-linejoin="round" stroke-linecap="butt" d="M132.9 41.2l41.7 48" fill-rule="evenodd"/><path fill="#000" fill-opacity="0" d="M132.9 89.2l41.7-48" fill-rule="evenodd"/><path stroke="#000" stroke-linejoin="round" stroke-linecap="butt" d="M132.9 89.2l41.7-48" fill-rule="evenodd"/><path fill="#000" fill-opacity="0" d="M132.9 89.2h41.7" fill-rule="evenodd"/><path stroke="#000" stroke-linejoin="round" stroke-linecap="butt" d="M132.9 89.2h41.7" fill-rule="evenodd"/><path fill="#000" fill-opacity="0" d="M132.9 113.2l41.7-24" fill-rule="evenodd"/><path stroke="#000" stroke-linejoin="round" stroke-linecap="butt" d="M132.9 113.2l41.7-24" fill-rule="evenodd"/><path fill="#000" fill-opacity="0" d="M132.9 113.2l41.7-72" fill-rule="evenodd"/><path stroke="#000" stroke-linejoin="round" stroke-linecap="butt" d="M132.9 113.2l41.7-72" fill-rule="evenodd"/><path fill="#000" fill-opacity="0" d="M62.6 41.2c0-4 3.2-7.1 7.1-7.1a7.1 7.1 0 017.2 7.1c0 4-3.2 7.2-7.2 7.2s-7.1-3.2-7.1-7.2z" fill-rule="evenodd"/><path stroke="#000" stroke-linejoin="round" stroke-linecap="butt" d="M62.6 41.2h0c0-4 3.2-7.1 7.1-7.1h0a7.1 7.1 0 017.2 7.1h0c0 4-3.2 7.2-7.2 7.2h0c-4 0-7.1-3.2-7.1-7.2z" fill-rule="evenodd"/><path fill="#000" fill-opacity="0" d="M62.6 65.2c0-4 3.2-7.1 7.1-7.1a7.1 7.1 0 017.2 7.1c0 4-3.2 7.2-7.2 7.2s-7.1-3.2-7.1-7.2z" fill-rule="evenodd"/><path stroke="#000" stroke-linejoin="round" stroke-linecap="butt" d="M62.6 65.2h0c0-4 3.2-7.1 7.1-7.1h0a7.1 7.1 0 017.2 7.1h0c0 4-3.2 7.2-7.2 7.2h0c-4 0-7.1-3.2-7.1-7.2z" fill-rule="evenodd"/><path fill="#000" fill-opacity="0" d="M62.6 89.2c0-4 3.2-7.1 7.1-7.1a7.1 7.1 0 017.2 7.1c0 4-3.2 7.2-7.2 7.2s-7.1-3.2-7.1-7.2z" fill-rule="evenodd"/><path stroke="#000" stroke-linejoin="round" stroke-linecap="butt" d="M62.6 89.2h0c0-4 3.2-7.1 7.1-7.1h0a7.1 7.1 0 017.2 7.1h0c0 4-3.2 7.2-7.2 7.2h0c-4 0-7.1-3.2-7.1-7.2z" fill-rule="evenodd"/><path fill="#000" fill-opacity="0" d="M118.6 41.2c0-4 3.2-7.1 7.1-7.1a7.1 7.1 0 017.2 7.1c0 4-3.2 7.2-7.2 7.2s-7.1-3.2-7.1-7.2z" fill-rule="evenodd"/><path stroke="#000" stroke-linejoin="round" stroke-linecap="butt" d="M118.6 41.2h0c0-4 3.2-7.1 7.1-7.1h0a7.1 7.1 0 017.2 7.1h0c0 4-3.2 7.2-7.2 7.2h0c-4 0-7.1-3.2-7.1-7.2z" fill-rule="evenodd"/><path fill="#000" fill-opacity="0" d="M118.6 89.2c0-4 3.2-7.1 7.1-7.1a7.1 7.1 0 017.2 7.1c0 4-3.2 7.2-7.2 7.2s-7.1-3.2-7.1-7.2z" fill-rule="evenodd"/><path stroke="#000" stroke-linejoin="round" stroke-linecap="butt" d="M118.6 89.2h0c0-4 3.2-7.1 7.1-7.1h0a7.1 7.1 0 017.2 7.1h0c0 4-3.2 7.2-7.2 7.2h0c-4 0-7.1-3.2-7.1-7.2z" fill-rule="evenodd"/><path fill="#000" fill-opacity="0" d="M118.6 17.2c0-4 3.2-7.1 7.1-7.1a7.1 7.1 0 017.2 7.1c0 4-3.2 7.2-7.2 7.2s-7.1-3.2-7.1-7.2z" fill-rule="evenodd"/><path stroke="#000" stroke-linejoin="round" stroke-linecap="butt" d="M118.6 17.2h0c0-4 3.2-7.1 7.1-7.1h0a7.1 7.1 0 017.2 7.1h0c0 4-3.2 7.2-7.2 7.2h0c-4 0-7.1-3.2-7.1-7.2z" fill-rule="evenodd"/><path fill="#000" fill-opacity="0" d="M118.6 113.2c0-4 3.2-7.1 7.1-7.1a7.1 7.1 0 017.2 7.1c0 4-3.2 7.2-7.2 7.2s-7.1-3.2-7.1-7.2z" fill-rule="evenodd"/><path stroke="#000" stroke-linejoin="round" stroke-linecap="butt" d="M118.6 113.2h0c0-4 3.2-7.1 7.1-7.1h0a7.1 7.1 0 017.2 7.1h0c0 4-3.2 7.2-7.2 7.2h0c-4 0-7.1-3.2-7.1-7.2z" fill-rule="evenodd"/><path fill="#000" fill-opacity="0" d="M132.9 17.2h41.7" fill-rule="evenodd"/><path stroke="#000" stroke-linejoin="round" stroke-linecap="butt" d="M132.9 17.2h41.7" fill-rule="evenodd"/><path fill="#000" fill-opacity="0" d="M132.9 17.2l41.7 96" fill-rule="evenodd"/><path stroke="#000" stroke-linejoin="round" stroke-linecap="butt" d="M132.9 17.2l41.7 96" fill-rule="evenodd"/><path fill="#000" fill-opacity="0" d="M132.9 113.2h41.7" fill-rule="evenodd"/><path stroke="#000" stroke-linejoin="round" stroke-linecap="butt" d="M132.9 113.2h41.7" fill-rule="evenodd"/><path fill="#000" fill-opacity="0" d="M132.9 113.2l41.7-96" fill-rule="evenodd"/><path stroke="#000" stroke-linejoin="round" stroke-linecap="butt" d="M132.9 113.2l41.7-96" fill-rule="evenodd"/><path fill="#000" fill-opacity="0" d="M132.9 41.2l41.7-24" fill-rule="evenodd"/><path stroke="#000" stroke-linejoin="round" stroke-linecap="butt" d="M132.9 41.2l41.7-24" fill-rule="evenodd"/><path fill="#000" fill-opacity="0" d="M132.9 41.2l41.7 72" fill-rule="evenodd"/><path stroke="#000" stroke-linejoin="round" stroke-linecap="butt" d="M132.9 41.2l41.7 72" fill-rule="evenodd"/><path fill="#000" fill-opacity="0" d="M132.9 89.2l41.7 24" fill-rule="evenodd"/><path stroke="#000" stroke-linejoin="round" stroke-linecap="butt" d="M132.9 89.2l41.7 24" fill-rule="evenodd"/><path fill="#000" fill-opacity="0" d="M132.9 89.2l41.7-72" fill-rule="evenodd"/><path stroke="#000" stroke-linejoin="round" stroke-linecap="butt" d="M132.9 89.2l41.7-72" fill-rule="evenodd"/><path fill="#000" fill-opacity="0" d="M108.2 83.2v-36h26.4v36z" fill-rule="evenodd"/><path fill="#000" d="M126.2 69.6h-1.3v-1.4h1.3v1.4zm0-3.7h-1.3v-1.4h1.3V66zm0-3.7h-1.3v-1.4h1.3v1.4z"/><path fill="#000" fill-opacity="0" d="M1 56.4h22.2v13.3H1.1z" fill-rule="evenodd"/><path fill="#000" d="M10.5 70h-.1v-.5l.6-.1.5-.4q.4-.3 1.1-1.3l1.5-1.8-.8-1.2-.7-1-.9-1-.5-.6h-.4H10.5v-.5l2-.4q.7.5 1.9 2.4l.7 1.1.6-.7 1.8-2.6H19v.4l-.5.2-.5.4-1 1-.5.7-.3.4-.6.8.3.5 1.1 1.5 1.2 1.6.6.5h.5v.5h-2.3l-1.5-2-.9-1.4q-1 1-2.5 3.5h-1.5z"/><path fill="#000" fill-opacity="0" d="M31.6 41.2h30.6" fill-rule="evenodd"/><path stroke="#000" stroke-linejoin="round" stroke-linecap="butt" d="M31.6 41.2h27.2" fill-rule="evenodd"/><path fill="#000" stroke="#000" stroke-linecap="butt" d="M58.8 41.2l-1.2 1.1 3.1-1-3-1.2z" fill-rule="evenodd"/><path fill="#000" fill-opacity="0" d="M31.6 65.2h30.6" fill-rule="evenodd"/><path stroke="#000" stroke-linejoin="round" stroke-linecap="butt" d="M31.6 65.2h27.2" fill-rule="evenodd"/><path fill="#000" stroke="#000" stroke-linecap="butt" d="M58.8 65.2l-1.2 1.1 3.1-1-3-1.2z" fill-rule="evenodd"/><path fill="#000" fill-opacity="0" d="M31.6 89.2h30.6" fill-rule="evenodd"/><path stroke="#000" stroke-linejoin="round" stroke-linecap="butt" d="M31.6 89.2h27.2" fill-rule="evenodd"/><path fill="#000" stroke="#000" stroke-linecap="butt" d="M58.8 89.2l-1.2 1.1 3.1-1-3-1.2z" fill-rule="evenodd"/></g></svg>