<svg viewBox="0 0 474 204" fill="none" stroke-linecap="square" stroke-miterlimit="10" xmlns="http://www.w3.org/2000/svg"><clipPath id="a"><path d="M0 0h474v204H0V0z"/></clipPath><g clip-path="url(#a)"><path fill="#000" fill-opacity="0" d="M0 0h474v204H0zM70.4 89.2l41.7-24" fill-rule="evenodd"/><path stroke="#000" stroke-linejoin="round" stroke-linecap="butt" d="M70.4 89.2l41.7-24" fill-rule="evenodd"/><path fill="#000" fill-opacity="0" d="M70.4 89.2h41.7" fill-rule="evenodd"/><path stroke="#000" stroke-linejoin="round" stroke-linecap="butt" d="M70.4 89.2h41.7" fill-rule="evenodd"/><path fill="#000" fill-opacity="0" d="M70.4 89.2l41.7 24" fill-rule="evenodd"/><path stroke="#000" stroke-linejoin="round" stroke-linecap="butt" d="M70.4 89.2l41.7 24" fill-rule="evenodd"/><path fill="#000" fill-opacity="0" d="M70.4 89.2l41.7 48" fill-rule="evenodd"/><path stroke="#000" stroke-linejoin="round" stroke-linecap="butt" d="M70.4 89.2l41.7 48" fill-rule="evenodd"/><path fill="#000" fill-opacity="0" d="M70.4 89.2l41.7 72" fill-rule="evenodd"/><path stroke="#000" stroke-linejoin="round" stroke-linecap="butt" d="M70.4 89.2l41.7 72" fill-rule="evenodd"/><path fill="#000" fill-opacity="0" d="M70.4 113.2l41.7-48" fill-rule="evenodd"/><path stroke="#000" stroke-linejoin="round" stroke-linecap="butt" d="M70.4 113.2l41.7-48" fill-rule="evenodd"/><path fill="#000" fill-opacity="0" d="M70.4 113.2l41.7-24" fill-rule="evenodd"/><path stroke="#000" stroke-linejoin="round" stroke-linecap="butt" d="M70.4 113.2l41.7-24" fill-rule="evenodd"/><path fill="#000" fill-opacity="0" d="M70.4 113.2h41.7" fill-rule="evenodd"/><path stroke="#000" stroke-linejoin="round" stroke-linecap="butt" d="M70.4 113.2h41.7" fill-rule="evenodd"/><path fill="#000" fill-opacity="0" d="M70.4 113.2l41.7 24" fill-rule="evenodd"/><path stroke="#000" stroke-linejoin="round" stroke-linecap="butt" d="M70.4 113.2l41.7 24" fill-rule="evenodd"/><path fill="#000" fill-opacity="0" d="M70.4 113.2l41.7 48" fill-rule="evenodd"/><path stroke="#000" stroke-linejoin="round" stroke-linecap="butt" d="M70.4 113.2l41.7 48" fill-rule="evenodd"/><path fill="#000" fill-opacity="0" d="M70.4 137.2l41.7-72" fill-rule="evenodd"/><path stroke="#000" stroke-linejoin="round" stroke-linecap="butt" d="M70.4 137.2l41.7-72" fill-rule="evenodd"/><path fill="#000" fill-opacity="0" d="M70.4 137.2l41.7-48" fill-rule="evenodd"/><path stroke="#000" stroke-linejoin="round" stroke-linecap="butt" d="M70.4 137.2l41.7-48" fill-rule="evenodd"/><path fill="#000" fill-opacity="0" d="M70.4 137.2l41.7-24" fill-rule="evenodd"/><path stroke="#000" stroke-linejoin="round" stroke-linecap="butt" d="M70.4 137.2l41.7-24" fill-rule="evenodd"/><path fill="#000" fill-opacity="0" d="M70.4 137.2h41.7" fill-rule="evenodd"/><path stroke="#000" stroke-linejoin="round" stroke-linecap="butt" d="M70.4 137.2h41.7" fill-rule="evenodd"/><path fill="#000" fill-opacity="0" d="M70.4 137.2l41.7 24" fill-rule="evenodd"/><path stroke="#000" stroke-linejoin="round" stroke-linecap="butt" d="M70.4 137.2l41.7 24" fill-rule="evenodd"/><path fill="#d9ead3" d="M224.1 89.2c0-4 3.2-7.1 7.2-7.1a7.1 7.1 0 017.1 7.1c0 4-3.2 7.2-7.1 7.2-4 0-7.2-3.2-7.2-7.2z" fill-rule="evenodd"/><path stroke="#000" stroke-linejoin="round" stroke-linecap="butt" d="M224.1 89.2h0c0-4 3.2-7.1 7.2-7.1h0a7.1 7.1 0 017.1 7.1h0c0 4-3.2 7.2-7.1 7.2h0c-4 0-7.2-3.2-7.2-7.2z" fill-rule="evenodd"/><path fill="#d9ead3" d="M224.1 113.2c0-4 3.2-7.1 7.2-7.1a7.1 7.1 0 017.1 7.1c0 4-3.2 7.2-7.1 7.2-4 0-7.2-3.2-7.2-7.2z" fill-rule="evenodd"/><path stroke="#000" stroke-linejoin="round" stroke-linecap="butt" d="M224.1 113.2h0c0-4 3.2-7.1 7.2-7.1h0a7.1 7.1 0 017.1 7.1h0c0 4-3.2 7.2-7.1 7.2h0c-4 0-7.2-3.2-7.2-7.2z" fill-rule="evenodd"/><path fill="#d9ead3" d="M224.1 137.2c0-4 3.2-7.1 7.2-7.1a7.1 7.1 0 017.1 7.1c0 4-3.2 7.2-7.1 7.2-4 0-7.2-3.2-7.2-7.2z" fill-rule="evenodd"/><path stroke="#000" stroke-linejoin="round" stroke-linecap="butt" d="M224.1 137.2h0c0-4 3.2-7.1 7.2-7.1h0a7.1 7.1 0 017.1 7.1h0c0 4-3.2 7.2-7.1 7.2h0c-4 0-7.2-3.2-7.2-7.2z" fill-rule="evenodd"/><path fill="#d9ead3" d="M280.1 125.1c0-4 3.2-7.1 7.2-7.1a7.1 7.1 0 017.1 7.1c0 4-3.2 7.2-7.1 7.2-4 0-7.2-3.2-7.2-7.2z" fill-rule="evenodd"/><path stroke="#000" stroke-linejoin="round" stroke-linecap="butt" d="M280.1 125.1h0c0-4 3.2-7.1 7.2-7.1h0a7.1 7.1 0 017.1 7.1h0c0 4-3.2 7.2-7.1 7.2h0c-4 0-7.2-3.2-7.2-7.2z" fill-rule="evenodd"/><path fill="#d9ead3" d="M280.1 101.1c0-4 3.2-7.1 7.2-7.1a7.1 7.1 0 017.1 7.1c0 4-3.2 7.2-7.1 7.2-4 0-7.2-3.2-7.2-7.2z" fill-rule="evenodd"/><path stroke="#000" stroke-linejoin="round" stroke-linecap="butt" d="M280.1 101.1h0c0-4 3.2-7.1 7.2-7.1h0a7.1 7.1 0 017.1 7.1h0c0 4-3.2 7.2-7.1 7.2h0c-4 0-7.2-3.2-7.2-7.2z" fill-rule="evenodd"/><path fill="#d9ead3" d="M336.1 113.2c0-4 3.2-7.1 7.2-7.1a7.1 7.1 0 017.1 7.1c0 4-3.2 7.2-7.1 7.2-4 0-7.2-3.2-7.2-7.2z" fill-rule="evenodd"/><path stroke="#000" stroke-linejoin="round" stroke-linecap="butt" d="M336.1 113.2h0c0-4 3.2-7.1 7.2-7.1h0a7.1 7.1 0 017.1 7.1h0c0 4-3.2 7.2-7.1 7.2h0c-4 0-7.2-3.2-7.2-7.2z" fill-rule="evenodd"/><path fill="#000" fill-opacity="0" d="M126.4 65.2l41.7 24" fill-rule="evenodd"/><path stroke="#000" stroke-linejoin="round" stroke-linecap="butt" d="M126.4 65.2l41.7 24" fill-rule="evenodd"/><path fill="#000" fill-opacity="0" d="M126.4 65.2l41.7 48" fill-rule="evenodd"/><path stroke="#000" stroke-linejoin="round" stroke-linecap="butt" d="M126.4 65.2l41.7 48" fill-rule="evenodd"/><path fill="#000" fill-opacity="0" d="M126.4 65.2l41.7 72" fill-rule="evenodd"/><path stroke="#000" stroke-linejoin="round" stroke-linecap="butt" d="M126.4 65.2l41.7 72" fill-rule="evenodd"/><path fill="#000" fill-opacity="0" d="M126.4 89.2h41.7" fill-rule="evenodd"/><path stroke="#000" stroke-linejoin="round" stroke-linecap="butt" d="M126.4 89.2h41.7" fill-rule="evenodd"/><path fill="#000" fill-opacity="0" d="M126.4 89.2l41.7 24" fill-rule="evenodd"/><path stroke="#000" stroke-linejoin="round" stroke-linecap="butt" d="M126.4 89.2l41.7 24" fill-rule="evenodd"/><path fill="#000" fill-opacity="0" d="M126.4 89.2l41.7 48" fill-rule="evenodd"/><path stroke="#000" stroke-linejoin="round" stroke-linecap="butt" d="M126.4 89.2l41.7 48" fill-rule="evenodd"/><path fill="#000" fill-opacity="0" d="M126.4 113.2l41.7-24" fill-rule="evenodd"/><path stroke="#000" stroke-linejoin="round" stroke-linecap="butt" d="M126.4 113.2l41.7-24" fill-rule="evenodd"/><path fill="#000" fill-opacity="0" d="M126.4 113.2h41.7" fill-rule="evenodd"/><path stroke="#000" stroke-linejoin="round" stroke-linecap="butt" d="M126.4 113.2h41.7" fill-rule="evenodd"/><path fill="#000" fill-opacity="0" d="M126.4 113.2l41.7 24" fill-rule="evenodd"/><path stroke="#000" stroke-linejoin="round" stroke-linecap="butt" d="M126.4 113.2l41.7 24" fill-rule="evenodd"/><path fill="#000" fill-opacity="0" d="M126.4 137.2l41.7-48" fill-rule="evenodd"/><path stroke="#000" stroke-linejoin="round" stroke-linecap="butt" d="M126.4 137.2l41.7-48" fill-rule="evenodd"/><path fill="#000" fill-opacity="0" d="M126.4 137.2l41.7-24" fill-rule="evenodd"/><path stroke="#000" stroke-linejoin="round" stroke-linecap="butt" d="M126.4 137.2l41.7-24" fill-rule="evenodd"/><path fill="#000" fill-opacity="0" d="M126.4 137.2h41.7" fill-rule="evenodd"/><path stroke="#000" stroke-linejoin="round" stroke-linecap="butt" d="M126.4 137.2h41.7" fill-rule="evenodd"/><path fill="#000" fill-opacity="0" d="M126.4 161.2l41.7-24" fill-rule="evenodd"/><path stroke="#000" stroke-linejoin="round" stroke-linecap="butt" d="M126.4 161.2l41.7-24" fill-rule="evenodd"/><path fill="#000" fill-opacity="0" d="M126.4 161.2l41.7-48" fill-rule="evenodd"/><path stroke="#000" stroke-linejoin="round" stroke-linecap="butt" d="M126.4 161.2l41.7-48" fill-rule="evenodd"/><path fill="#000" fill-opacity="0" d="M126.4 161.2l41.7-72" fill-rule="evenodd"/><path stroke="#000" stroke-linejoin="round" stroke-linecap="butt" d="M126.4 161.2l41.7-72" fill-rule="evenodd"/><path fill="#000" fill-opacity="0" d="M182.4 89.2h41.7" fill-rule="evenodd"/><path stroke="#000" stroke-linejoin="round" stroke-linecap="butt" d="M182.4 89.2h41.7" fill-rule="evenodd"/><path fill="#000" fill-opacity="0" d="M182.4 89.2l41.7 24" fill-rule="evenodd"/><path stroke="#000" stroke-linejoin="round" stroke-linecap="butt" d="M182.4 89.2l41.7 24" fill-rule="evenodd"/><path fill="#000" fill-opacity="0" d="M182.4 89.2l41.7 48" fill-rule="evenodd"/><path stroke="#000" stroke-linejoin="round" stroke-linecap="butt" d="M182.4 89.2l41.7 48" fill-rule="evenodd"/><path fill="#000" fill-opacity="0" d="M182.4 89.2l41.7 48" fill-rule="evenodd"/><path stroke="#000" stroke-linejoin="round" stroke-linecap="butt" d="M182.4 89.2l41.7 48" fill-rule="evenodd"/><path fill="#000" fill-opacity="0" d="M182.4 137.2l41.7-24" fill-rule="evenodd"/><path stroke="#000" stroke-linejoin="round" stroke-linecap="butt" d="M182.4 137.2l41.7-24" fill-rule="evenodd"/><path fill="#000" fill-opacity="0" d="M182.4 137.2l41.7-48" fill-rule="evenodd"/><path stroke="#000" stroke-linejoin="round" stroke-linecap="butt" d="M182.4 137.2l41.7-48" fill-rule="evenodd"/><path fill="#000" fill-opacity="0" d="M182.4 113.2l41.7-24" fill-rule="evenodd"/><path stroke="#000" stroke-linejoin="round" stroke-linecap="butt" d="M182.4 113.2l41.7-24" fill-rule="evenodd"/><path fill="#000" fill-opacity="0" d="M182.4 113.2h41.7" fill-rule="evenodd"/><path stroke="#000" stroke-linejoin="round" stroke-linecap="butt" d="M182.4 113.2h41.7" fill-rule="evenodd"/><path fill="#000" fill-opacity="0" d="M182.4 137.2h41.7" fill-rule="evenodd"/><path stroke="#000" stroke-linejoin="round" stroke-linecap="butt" d="M182.4 137.2h41.7" fill-rule="evenodd"/><path fill="#000" fill-opacity="0" d="M238.4 89.2l41.7 12" fill-rule="evenodd"/><path stroke="#000" stroke-linejoin="round" stroke-linecap="butt" d="M238.4 89.2l41.7 12" fill-rule="evenodd"/><path fill="#000" fill-opacity="0" d="M238.4 89.2l41.7 36" fill-rule="evenodd"/><path stroke="#000" stroke-linejoin="round" stroke-linecap="butt" d="M238.4 89.2l41.7 36" fill-rule="evenodd"/><path fill="#000" fill-opacity="0" d="M238.4 113.2l41.7-12" fill-rule="evenodd"/><path stroke="#000" stroke-linejoin="round" stroke-linecap="butt" d="M238.4 113.2l41.7-12" fill-rule="evenodd"/><path fill="#000" fill-opacity="0" d="M238.4 113.2l41.7 12" fill-rule="evenodd"/><path stroke="#000" stroke-linejoin="round" stroke-linecap="butt" d="M238.4 113.2l41.7 12" fill-rule="evenodd"/><path fill="#000" fill-opacity="0" d="M238.4 137.2l41.7-36" fill-rule="evenodd"/><path stroke="#000" stroke-linejoin="round" stroke-linecap="butt" d="M238.4 137.2l41.7-36" fill-rule="evenodd"/><path fill="#000" fill-opacity="0" d="M238.4 137.2l41.7-12" fill-rule="evenodd"/><path stroke="#000" stroke-linejoin="round" stroke-linecap="butt" d="M238.4 137.2l41.7-12" fill-rule="evenodd"/><path fill="#000" fill-opacity="0" d="M294.4 101.1l41.7 12.1" fill-rule="evenodd"/><path stroke="#000" stroke-linejoin="round" stroke-linecap="butt" d="M294.4 101.1l41.7 12.1" fill-rule="evenodd"/><path fill="#000" fill-opacity="0" d="M294.4 125.1l41.7-11.9" fill-rule="evenodd"/><path stroke="#000" stroke-linejoin="round" stroke-linecap="butt" d="M294.4 125.1l41.7-11.9" fill-rule="evenodd"/><path fill="#d9ead3" d="M56.1 89.2c0-4 3.2-7.1 7.2-7.1a7.1 7.1 0 017.1 7.1c0 4-3.2 7.2-7.1 7.2-4 0-7.2-3.2-7.2-7.2z" fill-rule="evenodd"/><path stroke="#000" stroke-linejoin="round" stroke-linecap="butt" d="M56.1 89.2h0c0-4 3.2-7.1 7.2-7.1h0a7.1 7.1 0 017.1 7.1h0c0 4-3.2 7.2-7.1 7.2h0c-4 0-7.2-3.2-7.2-7.2z" fill-rule="evenodd"/><path fill="#d9ead3" d="M56.1 113.2c0-4 3.2-7.1 7.2-7.1a7.1 7.1 0 017.1 7.1c0 4-3.2 7.2-7.1 7.2-4 0-7.2-3.2-7.2-7.2z" fill-rule="evenodd"/><path stroke="#000" stroke-linejoin="round" stroke-linecap="butt" d="M56.1 113.2h0c0-4 3.2-7.1 7.2-7.1h0a7.1 7.1 0 017.1 7.1h0c0 4-3.2 7.2-7.1 7.2h0c-4 0-7.2-3.2-7.2-7.2z" fill-rule="evenodd"/><path fill="#d9ead3" d="M56.1 137.2c0-4 3.2-7.1 7.2-7.1a7.1 7.1 0 017.1 7.1c0 4-3.2 7.2-7.1 7.2-4 0-7.2-3.2-7.2-7.2z" fill-rule="evenodd"/><path stroke="#000" stroke-linejoin="round" stroke-linecap="butt" d="M56.1 137.2h0c0-4 3.2-7.1 7.2-7.1h0a7.1 7.1 0 017.1 7.1h0c0 4-3.2 7.2-7.1 7.2h0c-4 0-7.2-3.2-7.2-7.2z" fill-rule="evenodd"/><path fill="#d9ead3" d="M112.1 89.2c0-4 3.2-7.1 7.2-7.1a7.1 7.1 0 017.1 7.1c0 4-3.2 7.2-7.1 7.2-4 0-7.2-3.2-7.2-7.2z" fill-rule="evenodd"/><path stroke="#000" stroke-linejoin="round" stroke-linecap="butt" d="M112.1 89.2h0c0-4 3.2-7.1 7.2-7.1h0a7.1 7.1 0 017.1 7.1h0c0 4-3.2 7.2-7.1 7.2h0c-4 0-7.2-3.2-7.2-7.2z" fill-rule="evenodd"/><path fill="#d9ead3" d="M112.1 113.2c0-4 3.2-7.1 7.2-7.1a7.1 7.1 0 017.1 7.1c0 4-3.2 7.2-7.1 7.2-4 0-7.2-3.2-7.2-7.2z" fill-rule="evenodd"/><path stroke="#000" stroke-linejoin="round" stroke-linecap="butt" d="M112.1 113.2h0c0-4 3.2-7.1 7.2-7.1h0a7.1 7.1 0 017.1 7.1h0c0 4-3.2 7.2-7.1 7.2h0c-4 0-7.2-3.2-7.2-7.2z" fill-rule="evenodd"/><path fill="#d9ead3" d="M112.1 137.2c0-4 3.2-7.1 7.2-7.1a7.1 7.1 0 017.1 7.1c0 4-3.2 7.2-7.1 7.2-4 0-7.2-3.2-7.2-7.2z" fill-rule="evenodd"/><path stroke="#000" stroke-linejoin="round" stroke-linecap="butt" d="M112.1 137.2h0c0-4 3.2-7.1 7.2-7.1h0a7.1 7.1 0 017.1 7.1h0c0 4-3.2 7.2-7.1 7.2h0c-4 0-7.2-3.2-7.2-7.2z" fill-rule="evenodd"/><path fill="#d9ead3" d="M112.1 65.2c0-4 3.2-7.1 7.2-7.1a7.1 7.1 0 017.1 7.1c0 4-3.2 7.2-7.1 7.2-4 0-7.2-3.2-7.2-7.2z" fill-rule="evenodd"/><path stroke="#000" stroke-linejoin="round" stroke-linecap="butt" d="M112.1 65.2h0c0-4 3.2-7.1 7.2-7.1h0a7.1 7.1 0 017.1 7.1h0c0 4-3.2 7.2-7.1 7.2h0c-4 0-7.2-3.2-7.2-7.2z" fill-rule="evenodd"/><path fill="#d9ead3" d="M112.1 161.2c0-4 3.2-7.1 7.2-7.1a7.1 7.1 0 017.1 7.1c0 4-3.2 7.2-7.1 7.2-4 0-7.2-3.2-7.2-7.2z" fill-rule="evenodd"/><path stroke="#000" stroke-linejoin="round" stroke-linecap="butt" d="M112.1 161.2h0c0-4 3.2-7.1 7.2-7.1h0a7.1 7.1 0 017.1 7.1h0c0 4-3.2 7.2-7.1 7.2h0c-4 0-7.2-3.2-7.2-7.2z" fill-rule="evenodd"/><path fill="#d9ead3" d="M168.1 89.2c0-4 3.2-7.1 7.2-7.1a7.1 7.1 0 017.1 7.1c0 4-3.2 7.2-7.1 7.2-4 0-7.2-3.2-7.2-7.2z" fill-rule="evenodd"/><path stroke="#000" stroke-linejoin="round" stroke-linecap="butt" d="M168.1 89.2h0c0-4 3.2-7.1 7.2-7.1h0a7.1 7.1 0 017.1 7.1h0c0 4-3.2 7.2-7.1 7.2h0c-4 0-7.2-3.2-7.2-7.2z" fill-rule="evenodd"/><path fill="#d9ead3" d="M168.1 113.2c0-4 3.2-7.1 7.2-7.1a7.1 7.1 0 017.1 7.1c0 4-3.2 7.2-7.1 7.2-4 0-7.2-3.2-7.2-7.2z" fill-rule="evenodd"/><path stroke="#000" stroke-linejoin="round" stroke-linecap="butt" d="M168.1 113.2h0c0-4 3.2-7.1 7.2-7.1h0a7.1 7.1 0 017.1 7.1h0c0 4-3.2 7.2-7.1 7.2h0c-4 0-7.2-3.2-7.2-7.2z" fill-rule="evenodd"/><path fill="#d9ead3" d="M168.1 137.2c0-4 3.2-7.1 7.2-7.1a7.1 7.1 0 017.1 7.1c0 4-3.2 7.2-7.1 7.2-4 0-7.2-3.2-7.2-7.2z" fill-rule="evenodd"/><path stroke="#000" stroke-linejoin="round" stroke-linecap="butt" d="M168.1 137.2h0c0-4 3.2-7.1 7.2-7.1h0a7.1 7.1 0 017.1 7.1h0c0 4-3.2 7.2-7.1 7.2h0c-4 0-7.2-3.2-7.2-7.2z" fill-rule="evenodd"/><path fill="#d9d9d9" d="M455.4 192.1c-1.4-6.4 0-25.6-8-38.8-8-13.1-40.1-26.8-40.1-40.1 0-13.4 31.9-26.8 40-39.8 8-13 7-32 8.3-38.5" fill-rule="evenodd"/><path stroke="#000" stroke-linejoin="round" stroke-linecap="butt" d="M455.4 192.1c-1.4-6.4 0-25.6-8-38.8-8-13.1-40.1-26.8-40.1-40.1 0-13.4 31.9-26.8 40-39.8 8-13 7-32 8.3-38.5" fill-rule="evenodd"/><path fill="#000" fill-opacity="0" d="M455.6 193.3V26.6" fill-rule="evenodd"/><path stroke="#000" stroke-linejoin="round" stroke-linecap="butt" d="M455.6 193.3V32.6" fill-rule="evenodd"/><path fill="#000" stroke="#000" stroke-linecap="butt" d="M457.3 32.6l-1.7-4.5-1.6 4.5z" fill-rule="evenodd"/><path fill="#000" fill-opacity="0" d="M441.4 6.1h29.7v13.3h-29.7z" fill-rule="evenodd"/><path fill="#000" d="M451.5 24.7l.4-1.5h.2q.5.5 1 .5.6 0 1.1-.6.5-.7 1.4-2.9l-.7-1.8-1.5-3.6-.7-1.6-.5-1.1-.2-.2-.7-.2h-.1v-.4h4.3v.4h-.6q-.5 0-.6.2l-.1.3.3 1 .5 1.5.6 1.4q.5 1.4.9 2l.4-1 .8-1.8.7-1.9.3-1v-.2-.3h-.7l-.4-.1v-.5h3.4v.4q-.4 0-.6.2-.2 0-.4.3l-.6 1.1-1 2-.8 2-2.1 4.9-.7 1.4q-.4.7-1 1-.6.3-1.3.3l-1-.2zm4.8-14.3zm2.2 9.8z"/><path fill="#000" fill-opacity="0" d="M411.3 59H441v13.4h-29.7z" fill-rule="evenodd"/><path fill="#3c78d8" d="M431.7 63.9v.2l-.2 1-3.1-.1-.1.1q.8.4 1.2.8.3.8.3 1.9 0 1.4-.5 2.7-.6 1.2-1.6 1.8-1 .6-2.3.6-1.8 0-3-1.1-1.3-1.2-1.3-3.2 0-1.5.6-2.5t1.6-1.4q1-.5 2.7-.5h1.5q2.5 0 4.2-.3zm-9 4.7q0 1.9.8 2.9t2.1 1q1.5 0 2.2-1.2.8-1.2.8-3.1 0-1.7-.7-2.6-.6-1-2-1-1.6 0-2.4 1-.7 1.1-.7 3z"/><path fill="#000" fill-opacity="0" d="M400.2 113h55.2" fill-rule="evenodd"/><path stroke="#6aa84f" stroke-linejoin="round" stroke-linecap="butt" stroke-dasharray="1.0,3.0" d="M400.2 113h55.2" fill-rule="evenodd"/><path fill="#000" fill-opacity="0" d="M371.7 105.1h29.7v13.3h-29.7z" fill-rule="evenodd"/><path fill="#6aa84f" d="M392.5 117.8l-.1.4q-1.1.7-2 .7-.5 0-.8-.3-.3-.2-.4-.5l-.1-1.1-.2-.1q-.7 1-1.5 1.5-.8.6-1.8.6-1.4 0-2-.9h-.2q0 3.7.5 5.5l-.1.2h-1.3l.1-7.7q0-4-.2-6h1.6l.2.1-.1 3q0 3 .5 3.9.6.8 1.7.8.8 0 1.5-.4.6-.5 1-1.3.3-.8.3-2.3l-.1-3.7 1.5-.2.2.2-.1 2.2v4.4q0 .6.3 1 .3.2.7.2l.9-.2z"/><path fill="#000" fill-opacity="0" d="M426.1 77.2v72.6" fill-rule="evenodd"/><path stroke="#3c78d8" stroke-linejoin="round" stroke-linecap="butt" d="M426.1 80.6v65.8" fill-rule="evenodd"/><path fill="#3c78d8" stroke="#3c78d8" stroke-linecap="butt" d="M426.1 80.6l1.2 1.1-1.2-3-1.1 3zM426.1 146.4l-1.1-1.1 1.1 3 1.2-3z" fill-rule="evenodd"/><path fill="#000" fill-opacity="0" d="M350.4 113.2h20.7" fill-rule="evenodd"/><path stroke="#b6d7a8" stroke-linejoin="round" stroke-linecap="butt" d="M350.4 113.2h14.7" fill-rule="evenodd"/><path fill="#b6d7a8" stroke="#b6d7a8" stroke-linecap="butt" d="M365.1 114.9l4.6-1.7-4.6-1.6z" fill-rule="evenodd"/><path fill="#000" fill-opacity="0" d="M-5.6 104.4h22.2v13.3H-5.6z" fill-rule="evenodd"/><path fill="#000" d="M3.8 118v-.5l.6-.1.5-.4 1-1.3 1.5-1.8-.7-1.2-.8-1-.9-1-.5-.6H4 4l-.1-.5 2-.4q.7.5 2 2.4l.6 1.1.6-.7 1.9-2.6H12.2v.4l-.5.2-.5.4-1 1-.5.7-.3.4-.6.8.4.5 1 1.5 1.3 1.6.5.5h.5v.5h-2.2q-.8-.8-1.5-2l-1-1.4q-.9 1-2.5 3.5H3.8z"/><path fill="#000" fill-opacity="0" d="M25 89.2h30.5" fill-rule="evenodd"/><path stroke="#000" stroke-linejoin="round" stroke-linecap="butt" d="M25 89.2H52" fill-rule="evenodd"/><path fill="#000" stroke="#000" stroke-linecap="butt" d="M52.1 89.2L51 90.3l3-1-3-1.2z" fill-rule="evenodd"/><path fill="#000" fill-opacity="0" d="M25 113.2h30.5" fill-rule="evenodd"/><path stroke="#000" stroke-linejoin="round" stroke-linecap="butt" d="M25 113.2H52" fill-rule="evenodd"/><path fill="#000" stroke="#000" stroke-linecap="butt" d="M52.1 113.2l-1.1 1.1 3-1-3-1.2z" fill-rule="evenodd"/><path fill="#000" fill-opacity="0" d="M25 137.2h30.5" fill-rule="evenodd"/><path stroke="#000" stroke-linejoin="round" stroke-linecap="butt" d="M25 137.2H52" fill-rule="evenodd"/><path fill="#000" stroke="#000" stroke-linecap="butt" d="M52.1 137.2l-1.1 1.1 3-1-3-1.2z" fill-rule="evenodd"/></g></svg>