<svg viewBox="0 0 477.5 203.3" fill="none" stroke-linecap="square" stroke-miterlimit="10" xmlns="http://www.w3.org/2000/svg"><clipPath id="a"><path d="M0 0h477.5v203.3H0V0z"/></clipPath><g clip-path="url(#a)"><path fill="#000" fill-opacity="0" d="M0 0h477.5v203.3H0zM75.4 89.2l41.7-24" fill-rule="evenodd"/><path stroke="#000" stroke-linejoin="round" stroke-linecap="butt" d="M75.4 89.2l41.7-24" fill-rule="evenodd"/><path fill="#000" fill-opacity="0" d="M75.4 89.2h41.7" fill-rule="evenodd"/><path stroke="#000" stroke-linejoin="round" stroke-linecap="butt" d="M75.4 89.2h41.7" fill-rule="evenodd"/><path fill="#000" fill-opacity="0" d="M75.4 89.2l41.7 24" fill-rule="evenodd"/><path stroke="#000" stroke-linejoin="round" stroke-linecap="butt" d="M75.4 89.2l41.7 24" fill-rule="evenodd"/><path fill="#000" fill-opacity="0" d="M75.4 89.2l41.7 48" fill-rule="evenodd"/><path stroke="#000" stroke-linejoin="round" stroke-linecap="butt" d="M75.4 89.2l41.7 48" fill-rule="evenodd"/><path fill="#000" fill-opacity="0" d="M75.4 89.2l41.7 72" fill-rule="evenodd"/><path stroke="#000" stroke-linejoin="round" stroke-linecap="butt" d="M75.4 89.2l41.7 72" fill-rule="evenodd"/><path fill="#000" fill-opacity="0" d="M75.4 113.2l41.7-48" fill-rule="evenodd"/><path stroke="#000" stroke-linejoin="round" stroke-linecap="butt" d="M75.4 113.2l41.7-48" fill-rule="evenodd"/><path fill="#000" fill-opacity="0" d="M75.4 113.2l41.7-24" fill-rule="evenodd"/><path stroke="#000" stroke-linejoin="round" stroke-linecap="butt" d="M75.4 113.2l41.7-24" fill-rule="evenodd"/><path fill="#000" fill-opacity="0" d="M75.4 113.2h41.7" fill-rule="evenodd"/><path stroke="#000" stroke-linejoin="round" stroke-linecap="butt" d="M75.4 113.2h41.7" fill-rule="evenodd"/><path fill="#000" fill-opacity="0" d="M75.4 113.2l41.7 24" fill-rule="evenodd"/><path stroke="#000" stroke-linejoin="round" stroke-linecap="butt" d="M75.4 113.2l41.7 24" fill-rule="evenodd"/><path fill="#000" fill-opacity="0" d="M75.4 113.2l41.7 48" fill-rule="evenodd"/><path stroke="#000" stroke-linejoin="round" stroke-linecap="butt" d="M75.4 113.2l41.7 48" fill-rule="evenodd"/><path fill="#000" fill-opacity="0" d="M75.4 137.2l41.7-72" fill-rule="evenodd"/><path stroke="#000" stroke-linejoin="round" stroke-linecap="butt" d="M75.4 137.2l41.7-72" fill-rule="evenodd"/><path fill="#000" fill-opacity="0" d="M75.4 137.2l41.7-48" fill-rule="evenodd"/><path stroke="#000" stroke-linejoin="round" stroke-linecap="butt" d="M75.4 137.2l41.7-48" fill-rule="evenodd"/><path fill="#000" fill-opacity="0" d="M75.4 137.2l41.7-24" fill-rule="evenodd"/><path stroke="#000" stroke-linejoin="round" stroke-linecap="butt" d="M75.4 137.2l41.7-24" fill-rule="evenodd"/><path fill="#000" fill-opacity="0" d="M75.4 137.2h41.7" fill-rule="evenodd"/><path stroke="#000" stroke-linejoin="round" stroke-linecap="butt" d="M75.4 137.2h41.7" fill-rule="evenodd"/><path fill="#000" fill-opacity="0" d="M75.4 137.2l41.7 24" fill-rule="evenodd"/><path stroke="#000" stroke-linejoin="round" stroke-linecap="butt" d="M75.4 137.2l41.7 24" fill-rule="evenodd"/><path fill="#c9daf8" d="M229.1 89.2c0-4 3.2-7.1 7.2-7.1a7.1 7.1 0 017.1 7.1c0 4-3.2 7.2-7.1 7.2-4 0-7.2-3.2-7.2-7.2z" fill-rule="evenodd"/><path stroke="#000" stroke-linejoin="round" stroke-linecap="butt" d="M229.1 89.2h0c0-4 3.2-7.1 7.2-7.1h0a7.1 7.1 0 017.1 7.1h0c0 4-3.2 7.2-7.1 7.2h0c-4 0-7.2-3.2-7.2-7.2z" fill-rule="evenodd"/><path fill="#d9ead3" d="M229.1 137.2c0-4 3.2-7.1 7.2-7.1a7.1 7.1 0 017.1 7.1c0 4-3.2 7.2-7.1 7.2-4 0-7.2-3.2-7.2-7.2z" fill-rule="evenodd"/><path stroke="#000" stroke-linejoin="round" stroke-linecap="butt" d="M229.1 137.2h0c0-4 3.2-7.1 7.2-7.1h0a7.1 7.1 0 017.1 7.1h0c0 4-3.2 7.2-7.1 7.2h0c-4 0-7.2-3.2-7.2-7.2z" fill-rule="evenodd"/><path fill="#d9ead3" d="M229.1 161.2c0-4 3.2-7.1 7.2-7.1a7.1 7.1 0 017.1 7.1c0 4-3.2 7.2-7.1 7.2-4 0-7.2-3.2-7.2-7.2z" fill-rule="evenodd"/><path stroke="#000" stroke-linejoin="round" stroke-linecap="butt" d="M229.1 161.2h0c0-4 3.2-7.1 7.2-7.1h0a7.1 7.1 0 017.1 7.1h0c0 4-3.2 7.2-7.1 7.2h0c-4 0-7.2-3.2-7.2-7.2z" fill-rule="evenodd"/><path fill="#d9ead3" d="M229.1 185.2c0-4 3.2-7.1 7.2-7.1a7.1 7.1 0 017.1 7.1c0 4-3.2 7.2-7.1 7.2-4 0-7.2-3.2-7.2-7.2z" fill-rule="evenodd"/><path stroke="#000" stroke-linejoin="round" stroke-linecap="butt" d="M229.1 185.2h0c0-4 3.2-7.1 7.2-7.1h0a7.1 7.1 0 017.1 7.1h0c0 4-3.2 7.2-7.1 7.2h0c-4 0-7.2-3.2-7.2-7.2z" fill-rule="evenodd"/><path fill="#c9daf8" d="M229.1 65.2c0-4 3.2-7.1 7.2-7.1a7.1 7.1 0 017.1 7.1c0 4-3.2 7.2-7.1 7.2-4 0-7.2-3.2-7.2-7.2z" fill-rule="evenodd"/><path stroke="#000" stroke-linejoin="round" stroke-linecap="butt" d="M229.1 65.2h0c0-4 3.2-7.1 7.2-7.1h0a7.1 7.1 0 017.1 7.1h0c0 4-3.2 7.2-7.1 7.2h0c-4 0-7.2-3.2-7.2-7.2z" fill-rule="evenodd"/><path fill="#c9daf8" d="M229.1 41.2c0-4 3.2-7.1 7.2-7.1a7.1 7.1 0 017.1 7.1c0 4-3.2 7.2-7.1 7.2-4 0-7.2-3.2-7.2-7.2z" fill-rule="evenodd"/><path stroke="#000" stroke-linejoin="round" stroke-linecap="butt" d="M229.1 41.2h0c0-4 3.2-7.1 7.2-7.1h0a7.1 7.1 0 017.1 7.1h0c0 4-3.2 7.2-7.1 7.2h0c-4 0-7.2-3.2-7.2-7.2z" fill-rule="evenodd"/><path fill="#c9daf8" d="M285.1 77.1c0-4 3.2-7.1 7.2-7.1a7.1 7.1 0 017.1 7.1c0 4-3.2 7.2-7.1 7.2-4 0-7.2-3.2-7.2-7.2z" fill-rule="evenodd"/><path stroke="#000" stroke-linejoin="round" stroke-linecap="butt" d="M285.1 77.1h0c0-4 3.2-7.1 7.2-7.1h0a7.1 7.1 0 017.1 7.1h0c0 4-3.2 7.2-7.1 7.2h0c-4 0-7.2-3.2-7.2-7.2z" fill-rule="evenodd"/><path fill="#c9daf8" d="M285.1 53.1c0-4 3.2-7.1 7.2-7.1a7.1 7.1 0 017.1 7.1c0 4-3.2 7.2-7.1 7.2-4 0-7.2-3.2-7.2-7.2z" fill-rule="evenodd"/><path stroke="#000" stroke-linejoin="round" stroke-linecap="butt" d="M285.1 53.1h0c0-4 3.2-7.1 7.2-7.1h0a7.1 7.1 0 017.1 7.1h0c0 4-3.2 7.2-7.1 7.2h0c-4 0-7.2-3.2-7.2-7.2z" fill-rule="evenodd"/><path fill="#c9daf8" d="M341.1 65.2c0-4 3.2-7.1 7.2-7.1a7.1 7.1 0 017.1 7.1c0 4-3.2 7.2-7.1 7.2-4 0-7.2-3.2-7.2-7.2z" fill-rule="evenodd"/><path stroke="#000" stroke-linejoin="round" stroke-linecap="butt" d="M341.1 65.2h0c0-4 3.2-7.1 7.2-7.1h0a7.1 7.1 0 017.1 7.1h0c0 4-3.2 7.2-7.1 7.2h0c-4 0-7.2-3.2-7.2-7.2z" fill-rule="evenodd"/><path fill="#d9ead3" d="M285.1 173.1c0-4 3.2-7.1 7.2-7.1a7.1 7.1 0 017.1 7.1c0 4-3.2 7.2-7.1 7.2-4 0-7.2-3.2-7.2-7.2z" fill-rule="evenodd"/><path stroke="#000" stroke-linejoin="round" stroke-linecap="butt" d="M285.1 173.1h0c0-4 3.2-7.1 7.2-7.1h0a7.1 7.1 0 017.1 7.1h0c0 4-3.2 7.2-7.1 7.2h0c-4 0-7.2-3.2-7.2-7.2z" fill-rule="evenodd"/><path fill="#d9ead3" d="M285.1 149.1c0-4 3.2-7.1 7.2-7.1a7.1 7.1 0 017.1 7.1c0 4-3.2 7.2-7.1 7.2-4 0-7.2-3.2-7.2-7.2z" fill-rule="evenodd"/><path stroke="#000" stroke-linejoin="round" stroke-linecap="butt" d="M285.1 149.1h0c0-4 3.2-7.1 7.2-7.1h0a7.1 7.1 0 017.1 7.1h0c0 4-3.2 7.2-7.1 7.2h0c-4 0-7.2-3.2-7.2-7.2z" fill-rule="evenodd"/><path fill="#d9ead3" d="M341.1 161.2c0-4 3.2-7.1 7.2-7.1a7.1 7.1 0 017.1 7.1c0 4-3.2 7.2-7.1 7.2-4 0-7.2-3.2-7.2-7.2z" fill-rule="evenodd"/><path stroke="#000" stroke-linejoin="round" stroke-linecap="butt" d="M341.1 161.2h0c0-4 3.2-7.1 7.2-7.1h0a7.1 7.1 0 017.1 7.1h0c0 4-3.2 7.2-7.1 7.2h0c-4 0-7.2-3.2-7.2-7.2z" fill-rule="evenodd"/><path fill="#000" fill-opacity="0" d="M131.4 65.2l41.7 24" fill-rule="evenodd"/><path stroke="#000" stroke-linejoin="round" stroke-linecap="butt" d="M131.4 65.2l41.7 24" fill-rule="evenodd"/><path fill="#000" fill-opacity="0" d="M131.4 65.2l41.7 48" fill-rule="evenodd"/><path stroke="#000" stroke-linejoin="round" stroke-linecap="butt" d="M131.4 65.2l41.7 48" fill-rule="evenodd"/><path fill="#000" fill-opacity="0" d="M131.4 65.2l41.7 72" fill-rule="evenodd"/><path stroke="#000" stroke-linejoin="round" stroke-linecap="butt" d="M131.4 65.2l41.7 72" fill-rule="evenodd"/><path fill="#000" fill-opacity="0" d="M131.4 89.2h41.7" fill-rule="evenodd"/><path stroke="#000" stroke-linejoin="round" stroke-linecap="butt" d="M131.4 89.2h41.7" fill-rule="evenodd"/><path fill="#000" fill-opacity="0" d="M131.4 89.2l41.7 24" fill-rule="evenodd"/><path stroke="#000" stroke-linejoin="round" stroke-linecap="butt" d="M131.4 89.2l41.7 24" fill-rule="evenodd"/><path fill="#000" fill-opacity="0" d="M131.4 89.2l41.7 48" fill-rule="evenodd"/><path stroke="#000" stroke-linejoin="round" stroke-linecap="butt" d="M131.4 89.2l41.7 48" fill-rule="evenodd"/><path fill="#000" fill-opacity="0" d="M131.4 113.2l41.7-24" fill-rule="evenodd"/><path stroke="#000" stroke-linejoin="round" stroke-linecap="butt" d="M131.4 113.2l41.7-24" fill-rule="evenodd"/><path fill="#000" fill-opacity="0" d="M131.4 113.2h41.7" fill-rule="evenodd"/><path stroke="#000" stroke-linejoin="round" stroke-linecap="butt" d="M131.4 113.2h41.7" fill-rule="evenodd"/><path fill="#000" fill-opacity="0" d="M131.4 113.2l41.7 24" fill-rule="evenodd"/><path stroke="#000" stroke-linejoin="round" stroke-linecap="butt" d="M131.4 113.2l41.7 24" fill-rule="evenodd"/><path fill="#000" fill-opacity="0" d="M131.4 137.2l41.7-48" fill-rule="evenodd"/><path stroke="#000" stroke-linejoin="round" stroke-linecap="butt" d="M131.4 137.2l41.7-48" fill-rule="evenodd"/><path fill="#000" fill-opacity="0" d="M131.4 137.2l41.7-24" fill-rule="evenodd"/><path stroke="#000" stroke-linejoin="round" stroke-linecap="butt" d="M131.4 137.2l41.7-24" fill-rule="evenodd"/><path fill="#000" fill-opacity="0" d="M131.4 137.2h41.7" fill-rule="evenodd"/><path stroke="#000" stroke-linejoin="round" stroke-linecap="butt" d="M131.4 137.2h41.7" fill-rule="evenodd"/><path fill="#000" fill-opacity="0" d="M131.4 161.2l41.7-24" fill-rule="evenodd"/><path stroke="#000" stroke-linejoin="round" stroke-linecap="butt" d="M131.4 161.2l41.7-24" fill-rule="evenodd"/><path fill="#000" fill-opacity="0" d="M131.4 161.2l41.7-48" fill-rule="evenodd"/><path stroke="#000" stroke-linejoin="round" stroke-linecap="butt" d="M131.4 161.2l41.7-48" fill-rule="evenodd"/><path fill="#000" fill-opacity="0" d="M131.4 161.2l41.7-72" fill-rule="evenodd"/><path stroke="#000" stroke-linejoin="round" stroke-linecap="butt" d="M131.4 161.2l41.7-72" fill-rule="evenodd"/><path fill="#000" fill-opacity="0" d="M187.4 89.2l41.7-48" fill-rule="evenodd"/><path stroke="#000" stroke-linejoin="round" stroke-linecap="butt" d="M187.4 89.2l41.7-48" fill-rule="evenodd"/><path fill="#000" fill-opacity="0" d="M187.4 89.2l41.7-24" fill-rule="evenodd"/><path stroke="#000" stroke-linejoin="round" stroke-linecap="butt" d="M187.4 89.2l41.7-24" fill-rule="evenodd"/><path fill="#000" fill-opacity="0" d="M187.4 89.2h41.7" fill-rule="evenodd"/><path stroke="#000" stroke-linejoin="round" stroke-linecap="butt" d="M187.4 89.2h41.7" fill-rule="evenodd"/><path fill="#000" fill-opacity="0" d="M187.4 89.2l41.7 48" fill-rule="evenodd"/><path stroke="#000" stroke-linejoin="round" stroke-linecap="butt" d="M187.4 89.2l41.7 48" fill-rule="evenodd"/><path fill="#000" fill-opacity="0" d="M187.4 89.2l41.7 72" fill-rule="evenodd"/><path stroke="#000" stroke-linejoin="round" stroke-linecap="butt" d="M187.4 89.2l41.7 72" fill-rule="evenodd"/><path fill="#000" fill-opacity="0" d="M187.4 89.2l41.7 96" fill-rule="evenodd"/><path stroke="#000" stroke-linejoin="round" stroke-linecap="butt" d="M187.4 89.2l41.7 96" fill-rule="evenodd"/><path fill="#000" fill-opacity="0" d="M187.4 137.2l41.7 48" fill-rule="evenodd"/><path stroke="#000" stroke-linejoin="round" stroke-linecap="butt" d="M187.4 137.2l41.7 48" fill-rule="evenodd"/><path fill="#000" fill-opacity="0" d="M187.4 137.2l41.7 24" fill-rule="evenodd"/><path stroke="#000" stroke-linejoin="round" stroke-linecap="butt" d="M187.4 137.2l41.7 24" fill-rule="evenodd"/><path fill="#000" fill-opacity="0" d="M187.4 137.2h41.7" fill-rule="evenodd"/><path stroke="#000" stroke-linejoin="round" stroke-linecap="butt" d="M187.4 137.2h41.7" fill-rule="evenodd"/><path fill="#000" fill-opacity="0" d="M187.4 137.2l41.7-48" fill-rule="evenodd"/><path stroke="#000" stroke-linejoin="round" stroke-linecap="butt" d="M187.4 137.2l41.7-48" fill-rule="evenodd"/><path fill="#000" fill-opacity="0" d="M187.4 137.2l41.7-72" fill-rule="evenodd"/><path stroke="#000" stroke-linejoin="round" stroke-linecap="butt" d="M187.4 137.2l41.7-72" fill-rule="evenodd"/><path fill="#000" fill-opacity="0" d="M187.4 137.2l41.7-96" fill-rule="evenodd"/><path stroke="#000" stroke-linejoin="round" stroke-linecap="butt" d="M187.4 137.2l41.7-96" fill-rule="evenodd"/><path fill="#000" fill-opacity="0" d="M187.4 113.2l41.7-24" fill-rule="evenodd"/><path stroke="#000" stroke-linejoin="round" stroke-linecap="butt" d="M187.4 113.2l41.7-24" fill-rule="evenodd"/><path fill="#000" fill-opacity="0" d="M187.4 113.2l41.7-48" fill-rule="evenodd"/><path stroke="#000" stroke-linejoin="round" stroke-linecap="butt" d="M187.4 113.2l41.7-48" fill-rule="evenodd"/><path fill="#000" fill-opacity="0" d="M187.4 113.2l41.7-72" fill-rule="evenodd"/><path stroke="#000" stroke-linejoin="round" stroke-linecap="butt" d="M187.4 113.2l41.7-72" fill-rule="evenodd"/><path fill="#000" fill-opacity="0" d="M187.4 113.2l41.7 24" fill-rule="evenodd"/><path stroke="#000" stroke-linejoin="round" stroke-linecap="butt" d="M187.4 113.2l41.7 24" fill-rule="evenodd"/><path fill="#000" fill-opacity="0" d="M187.4 113.2l41.7 48" fill-rule="evenodd"/><path stroke="#000" stroke-linejoin="round" stroke-linecap="butt" d="M187.4 113.2l41.7 48" fill-rule="evenodd"/><path fill="#000" fill-opacity="0" d="M187.4 113.2l41.7 72" fill-rule="evenodd"/><path stroke="#000" stroke-linejoin="round" stroke-linecap="butt" d="M187.4 113.2l41.7 72" fill-rule="evenodd"/><path fill="#000" fill-opacity="0" d="M243.4 41.2l41.7 12" fill-rule="evenodd"/><path stroke="#000" stroke-linejoin="round" stroke-linecap="butt" d="M243.4 41.2l41.7 12" fill-rule="evenodd"/><path fill="#000" fill-opacity="0" d="M243.4 41.2l41.7 36" fill-rule="evenodd"/><path stroke="#000" stroke-linejoin="round" stroke-linecap="butt" d="M243.4 41.2l41.7 36" fill-rule="evenodd"/><path fill="#000" fill-opacity="0" d="M243.4 65.2l41.7-12" fill-rule="evenodd"/><path stroke="#000" stroke-linejoin="round" stroke-linecap="butt" d="M243.4 65.2l41.7-12" fill-rule="evenodd"/><path fill="#000" fill-opacity="0" d="M243.4 65.2l41.7 12" fill-rule="evenodd"/><path stroke="#000" stroke-linejoin="round" stroke-linecap="butt" d="M243.4 65.2l41.7 12" fill-rule="evenodd"/><path fill="#000" fill-opacity="0" d="M243.4 89.2l41.7-36" fill-rule="evenodd"/><path stroke="#000" stroke-linejoin="round" stroke-linecap="butt" d="M243.4 89.2l41.7-36" fill-rule="evenodd"/><path fill="#000" fill-opacity="0" d="M243.4 89.2l41.7-12" fill-rule="evenodd"/><path stroke="#000" stroke-linejoin="round" stroke-linecap="butt" d="M243.4 89.2l41.7-12" fill-rule="evenodd"/><path fill="#000" fill-opacity="0" d="M299.4 53.1l41.7 12.1" fill-rule="evenodd"/><path stroke="#000" stroke-linejoin="round" stroke-linecap="butt" d="M299.4 53.1l41.7 12.1" fill-rule="evenodd"/><path fill="#000" fill-opacity="0" d="M299.4 77.1l41.7-11.9" fill-rule="evenodd"/><path stroke="#000" stroke-linejoin="round" stroke-linecap="butt" d="M299.4 77.1l41.7-11.9" fill-rule="evenodd"/><path fill="#000" fill-opacity="0" d="M243.4 137.2l41.7 12" fill-rule="evenodd"/><path stroke="#000" stroke-linejoin="round" stroke-linecap="butt" d="M243.4 137.2l41.7 12" fill-rule="evenodd"/><path fill="#000" fill-opacity="0" d="M243.4 137.2l41.7 36" fill-rule="evenodd"/><path stroke="#000" stroke-linejoin="round" stroke-linecap="butt" d="M243.4 137.2l41.7 36" fill-rule="evenodd"/><path fill="#000" fill-opacity="0" d="M243.4 161.2l41.7-12" fill-rule="evenodd"/><path stroke="#000" stroke-linejoin="round" stroke-linecap="butt" d="M243.4 161.2l41.7-12" fill-rule="evenodd"/><path fill="#000" fill-opacity="0" d="M243.4 161.2l41.7 12" fill-rule="evenodd"/><path stroke="#000" stroke-linejoin="round" stroke-linecap="butt" d="M243.4 161.2l41.7 12" fill-rule="evenodd"/><path fill="#000" fill-opacity="0" d="M243.4 185.2l41.7-36" fill-rule="evenodd"/><path stroke="#000" stroke-linejoin="round" stroke-linecap="butt" d="M243.4 185.2l41.7-36" fill-rule="evenodd"/><path fill="#000" fill-opacity="0" d="M243.4 185.2l41.7-12" fill-rule="evenodd"/><path stroke="#000" stroke-linejoin="round" stroke-linecap="butt" d="M243.4 185.2l41.7-12" fill-rule="evenodd"/><path fill="#000" fill-opacity="0" d="M299.4 149.1l41.7 12.1" fill-rule="evenodd"/><path stroke="#000" stroke-linejoin="round" stroke-linecap="butt" d="M299.4 149.1l41.7 12.1" fill-rule="evenodd"/><path fill="#000" fill-opacity="0" d="M299.4 173.1l41.7-11.9" fill-rule="evenodd"/><path stroke="#000" stroke-linejoin="round" stroke-linecap="butt" d="M299.4 173.1l41.7-11.9" fill-rule="evenodd"/><path fill="#f4cccc" d="M61.1 89.2c0-4 3.2-7.1 7.2-7.1a7.1 7.1 0 017.1 7.1c0 4-3.2 7.2-7.1 7.2-4 0-7.2-3.2-7.2-7.2z" fill-rule="evenodd"/><path stroke="#000" stroke-linejoin="round" stroke-linecap="butt" d="M61.1 89.2h0c0-4 3.2-7.1 7.2-7.1h0a7.1 7.1 0 017.1 7.1h0c0 4-3.2 7.2-7.1 7.2h0c-4 0-7.2-3.2-7.2-7.2z" fill-rule="evenodd"/><path fill="#f4cccc" d="M61.1 113.2c0-4 3.2-7.1 7.2-7.1a7.1 7.1 0 017.1 7.1c0 4-3.2 7.2-7.1 7.2-4 0-7.2-3.2-7.2-7.2z" fill-rule="evenodd"/><path stroke="#000" stroke-linejoin="round" stroke-linecap="butt" d="M61.1 113.2h0c0-4 3.2-7.1 7.2-7.1h0a7.1 7.1 0 017.1 7.1h0c0 4-3.2 7.2-7.1 7.2h0c-4 0-7.2-3.2-7.2-7.2z" fill-rule="evenodd"/><path fill="#f4cccc" d="M61.1 137.2c0-4 3.2-7.1 7.2-7.1a7.1 7.1 0 017.1 7.1c0 4-3.2 7.2-7.1 7.2-4 0-7.2-3.2-7.2-7.2z" fill-rule="evenodd"/><path stroke="#000" stroke-linejoin="round" stroke-linecap="butt" d="M61.1 137.2h0c0-4 3.2-7.1 7.2-7.1h0a7.1 7.1 0 017.1 7.1h0c0 4-3.2 7.2-7.1 7.2h0c-4 0-7.2-3.2-7.2-7.2z" fill-rule="evenodd"/><path fill="#f4cccc" d="M117.1 89.2c0-4 3.2-7.1 7.2-7.1a7.1 7.1 0 017.1 7.1c0 4-3.2 7.2-7.1 7.2-4 0-7.2-3.2-7.2-7.2z" fill-rule="evenodd"/><path stroke="#000" stroke-linejoin="round" stroke-linecap="butt" d="M117.1 89.2h0c0-4 3.2-7.1 7.2-7.1h0a7.1 7.1 0 017.1 7.1h0c0 4-3.2 7.2-7.1 7.2h0c-4 0-7.2-3.2-7.2-7.2z" fill-rule="evenodd"/><path fill="#f4cccc" d="M117.1 113.2c0-4 3.2-7.1 7.2-7.1a7.1 7.1 0 017.1 7.1c0 4-3.2 7.2-7.1 7.2-4 0-7.2-3.2-7.2-7.2z" fill-rule="evenodd"/><path stroke="#000" stroke-linejoin="round" stroke-linecap="butt" d="M117.1 113.2h0c0-4 3.2-7.1 7.2-7.1h0a7.1 7.1 0 017.1 7.1h0c0 4-3.2 7.2-7.1 7.2h0c-4 0-7.2-3.2-7.2-7.2z" fill-rule="evenodd"/><path fill="#f4cccc" d="M117.1 137.2c0-4 3.2-7.1 7.2-7.1a7.1 7.1 0 017.1 7.1c0 4-3.2 7.2-7.1 7.2-4 0-7.2-3.2-7.2-7.2z" fill-rule="evenodd"/><path stroke="#000" stroke-linejoin="round" stroke-linecap="butt" d="M117.1 137.2h0c0-4 3.2-7.1 7.2-7.1h0a7.1 7.1 0 017.1 7.1h0c0 4-3.2 7.2-7.1 7.2h0c-4 0-7.2-3.2-7.2-7.2z" fill-rule="evenodd"/><path fill="#f4cccc" d="M117.1 65.2c0-4 3.2-7.1 7.2-7.1a7.1 7.1 0 017.1 7.1c0 4-3.2 7.2-7.1 7.2-4 0-7.2-3.2-7.2-7.2z" fill-rule="evenodd"/><path stroke="#000" stroke-linejoin="round" stroke-linecap="butt" d="M117.1 65.2h0c0-4 3.2-7.1 7.2-7.1h0a7.1 7.1 0 017.1 7.1h0c0 4-3.2 7.2-7.1 7.2h0c-4 0-7.2-3.2-7.2-7.2z" fill-rule="evenodd"/><path fill="#f4cccc" d="M117.1 161.2c0-4 3.2-7.1 7.2-7.1a7.1 7.1 0 017.1 7.1c0 4-3.2 7.2-7.1 7.2-4 0-7.2-3.2-7.2-7.2z" fill-rule="evenodd"/><path stroke="#000" stroke-linejoin="round" stroke-linecap="butt" d="M117.1 161.2h0c0-4 3.2-7.1 7.2-7.1h0a7.1 7.1 0 017.1 7.1h0c0 4-3.2 7.2-7.1 7.2h0c-4 0-7.2-3.2-7.2-7.2z" fill-rule="evenodd"/><path fill="#f4cccc" d="M173.1 89.2c0-4 3.2-7.1 7.2-7.1a7.1 7.1 0 017.1 7.1c0 4-3.2 7.2-7.1 7.2-4 0-7.2-3.2-7.2-7.2z" fill-rule="evenodd"/><path stroke="#000" stroke-linejoin="round" stroke-linecap="butt" d="M173.1 89.2h0c0-4 3.2-7.1 7.2-7.1h0a7.1 7.1 0 017.1 7.1h0c0 4-3.2 7.2-7.1 7.2h0c-4 0-7.2-3.2-7.2-7.2z" fill-rule="evenodd"/><path fill="#f4cccc" d="M173.1 113.2c0-4 3.2-7.1 7.2-7.1a7.1 7.1 0 017.1 7.1c0 4-3.2 7.2-7.1 7.2-4 0-7.2-3.2-7.2-7.2z" fill-rule="evenodd"/><path stroke="#000" stroke-linejoin="round" stroke-linecap="butt" d="M173.1 113.2h0c0-4 3.2-7.1 7.2-7.1h0a7.1 7.1 0 017.1 7.1h0c0 4-3.2 7.2-7.1 7.2h0c-4 0-7.2-3.2-7.2-7.2z" fill-rule="evenodd"/><path fill="#f4cccc" d="M173.1 137.2c0-4 3.2-7.1 7.2-7.1a7.1 7.1 0 017.1 7.1c0 4-3.2 7.2-7.1 7.2-4 0-7.2-3.2-7.2-7.2z" fill-rule="evenodd"/><path stroke="#000" stroke-linejoin="round" stroke-linecap="butt" d="M173.1 137.2h0c0-4 3.2-7.1 7.2-7.1h0a7.1 7.1 0 017.1 7.1h0c0 4-3.2 7.2-7.1 7.2h0c-4 0-7.2-3.2-7.2-7.2z" fill-rule="evenodd"/><path fill="#d9d9d9" d="M460.4 192.1c-1.4-6.4 0-25.6-8-38.8-8-13.1-40.1-26.8-40.1-40.1 0-13.4 31.9-26.8 40-39.8 8-13 7-32 8.3-38.5" fill-rule="evenodd"/><path stroke="#000" stroke-linejoin="round" stroke-linecap="butt" d="M460.4 192.1c-1.4-6.4 0-25.6-8-38.8-8-13.1-40.1-26.8-40.1-40.1 0-13.4 31.9-26.8 40-39.8 8-13 7-32 8.3-38.5" fill-rule="evenodd"/><path fill="#000" fill-opacity="0" d="M460.6 193.3V26.6" fill-rule="evenodd"/><path stroke="#000" stroke-linejoin="round" stroke-linecap="butt" d="M460.6 193.3V32.6" fill-rule="evenodd"/><path fill="#000" stroke="#000" stroke-linecap="butt" d="M462.3 32.6l-1.7-4.5-1.6 4.5z" fill-rule="evenodd"/><path fill="#000" fill-opacity="0" d="M446.4 6.1h29.7v13.3h-29.7z" fill-rule="evenodd"/><path fill="#000" d="M456.5 24.7l.4-1.5h.2q.5.5 1 .5.6 0 1.1-.6.5-.7 1.4-2.9l-.7-1.8-1.5-3.6-.7-1.6-.5-1.1-.2-.2-.7-.2h-.1v-.4h4.3v.4h-.6q-.5 0-.6.2l-.1.3.3 1 .5 1.5.6 1.4q.5 1.4.9 2l.4-1 .8-1.8.7-1.9.3-1v-.2-.3h-.7l-.4-.1v-.5h3.4v.4q-.4 0-.6.2-.2 0-.4.3l-.6 1.1-1 2-.8 2-2.1 4.9-.7 1.4q-.4.7-1 1-.6.3-1.3.3l-1-.2zm4.8-14.3zm2.2 9.8z"/><path fill="#000" fill-opacity="0" d="M416.3 59H446v13.4h-29.7z" fill-rule="evenodd"/><path fill="#3c78d8" d="M436.7 63.9v.2l-.2 1-3.1-.1-.1.1q.8.4 1.2.8.3.8.3 1.9 0 1.4-.5 2.7-.6 1.2-1.6 1.8-1 .6-2.3.6-1.8 0-3-1.1-1.3-1.2-1.3-3.2 0-1.5.6-2.5t1.6-1.4q1-.5 2.7-.5h1.5q2.5 0 4.2-.3zm-9 4.7q0 1.9.8 2.9t2.1 1q1.5 0 2.2-1.2.8-1.2.8-3.1 0-1.7-.7-2.6-.6-1-2-1-1.6 0-2.4 1-.7 1.1-.7 3z"/><path fill="#000" fill-opacity="0" d="M405.2 113h55.2" fill-rule="evenodd"/><path stroke="#6aa84f" stroke-linejoin="round" stroke-linecap="butt" stroke-dasharray="1.0,3.0" d="M405.2 113h55.2" fill-rule="evenodd"/><path fill="#000" fill-opacity="0" d="M376.7 105.1h29.7v13.3h-29.7z" fill-rule="evenodd"/><path fill="#6aa84f" d="M397.5 117.8l-.1.4q-1.1.7-2 .7-.5 0-.8-.3-.3-.2-.4-.5l-.1-1.1-.2-.1q-.7 1-1.5 1.5-.8.6-1.8.6-1.4 0-2-.9h-.2q0 3.7.5 5.5l-.1.2h-1.3l.1-7.7q0-4-.2-6h1.6l.2.1-.1 3q0 3 .5 3.9.6.8 1.7.8.8 0 1.5-.4.6-.5 1-1.3.3-.8.3-2.3l-.1-3.7 1.5-.2.2.2-.1 2.2v4.4q0 .6.3 1 .3.2.7.2l.9-.2z"/><path fill="#000" fill-opacity="0" d="M431.1 77.2v72.6" fill-rule="evenodd"/><path stroke="#3c78d8" stroke-linejoin="round" stroke-linecap="butt" d="M431.1 80.6v65.8" fill-rule="evenodd"/><path fill="#3c78d8" stroke="#3c78d8" stroke-linecap="butt" d="M431.1 80.6l1.2 1.1-1.2-3-1.1 3zM431.1 146.4l-1.1-1.1 1.1 3 1.2-3z" fill-rule="evenodd"/><path fill="#000" fill-opacity="0" d="M358 152.6l24-26" fill-rule="evenodd"/><path stroke="#b6d7a8" stroke-linejoin="round" stroke-linecap="butt" d="M358 152.6l20-21.6" fill-rule="evenodd"/><path fill="#b6d7a8" stroke="#b6d7a8" stroke-linecap="butt" d="M379.2 132.2l1.9-4.5-4.3 2.2z" fill-rule="evenodd"/><path fill="#000" fill-opacity="0" d="M362.9 64.3l56.4 4.4" fill-rule="evenodd"/><path stroke="#a4c2f4" stroke-linejoin="round" stroke-linecap="butt" d="M362.9 64.3l50.4 3.9" fill-rule="evenodd"/><path fill="#a4c2f4" stroke="#a4c2f4" stroke-linecap="butt" d="M413.2 69.8l4.6-1.3-4.4-2z" fill-rule="evenodd"/><path fill="#000" fill-opacity="0" d="M0 104.4h22.1v13.3H0z" fill-rule="evenodd"/><path fill="#000" d="M9.4 118v-.5l.6-.1.5-.4 1-1.3L13 114l-.8-1.2-.7-1-.9-1-.5-.6h-.4-.2l-.2-.5h.1l2-.4q.7.5 2 2.4l.6 1.1.6-.7 1.8-2.6h1.4v.4l-.5.2-.5.4-1 1-.5.7-.3.4-.6.8.3.5 1.1 1.5 1.3 1.6.5.5h.5v.5h-2.2q-.8-.8-1.5-2l-1-1.4q-.9 1-2.5 3.5H9.4z"/><path fill="#000" fill-opacity="0" d="M30.5 89.2H61" fill-rule="evenodd"/><path stroke="#000" stroke-linejoin="round" stroke-linecap="butt" d="M30.5 89.2h27.2" fill-rule="evenodd"/><path fill="#000" stroke="#000" stroke-linecap="butt" d="M57.7 89.2l-1.1 1.1 3-1-3-1.2z" fill-rule="evenodd"/><path fill="#000" fill-opacity="0" d="M30.5 113.2h30.6" fill-rule="evenodd"/><path stroke="#000" stroke-linejoin="round" stroke-linecap="butt" d="M30.5 113.2h27.2" fill-rule="evenodd"/><path fill="#000" stroke="#000" stroke-linecap="butt" d="M57.7 113.2l-1.1 1.1 3-1-3-1.2z" fill-rule="evenodd"/><path fill="#000" fill-opacity="0" d="M30.5 137.2h30.6" fill-rule="evenodd"/><path stroke="#000" stroke-linejoin="round" stroke-linecap="butt" d="M30.5 137.2h27.2" fill-rule="evenodd"/><path fill="#000" stroke="#000" stroke-linecap="butt" d="M57.7 137.2l-1.1 1.1 3-1-3-1.2z" fill-rule="evenodd"/></g></svg>